<svg width="19" height="19" viewBox="0 0 19 19" fill="none" xmlns="http://www.w3.org/2000/svg">
<path fill-rule="evenodd" clip-rule="evenodd" d="M12.7036 11.9787L18 17.2751L17.2761 18L11.9798 12.7036C10.8156 13.7019 9.30547 14.31 7.65502 14.31C3.98555 14.31 1 11.3245 1 7.65502C0.998977 5.87762 1.6911 4.20567 2.94736 2.94839C4.20567 1.69212 5.87762 1 7.65502 1C11.3245 1 14.31 3.98555 14.31 7.65502C14.31 9.30547 13.7019 10.8146 12.7036 11.9787ZM2.02385 7.65502C2.02385 10.7604 4.55071 13.2862 7.65502 13.2862C10.7593 13.2862 13.2862 10.7593 13.2862 7.65502C13.2862 4.54969 10.7593 2.02385 7.65502 2.02385C6.14996 2.02385 4.735 2.60949 3.67225 3.67327C2.60847 4.73603 2.02283 6.14996 2.02385 7.65502Z" fill="white"/>
<path d="M18 17.2751L18.1769 17.4518L18.3534 17.275L18.1768 17.0983L18 17.2751ZM12.7036 11.9787L12.5138 11.816L12.3631 11.9918L12.5268 12.1555L12.7036 11.9787ZM17.2761 18L17.0994 18.1768L17.2763 18.3537L17.453 18.1767L17.2761 18ZM11.9798 12.7036L12.1565 12.5268L11.9928 12.3631L11.817 12.5138L11.9798 12.7036ZM1 7.65502H1.25L1.25 7.65488L1 7.65502ZM2.94736 2.94839L2.77073 2.77147L2.77051 2.77168L2.94736 2.94839ZM2.02385 7.65502H2.27385V7.65485L2.02385 7.65502ZM3.67225 3.67327L3.84894 3.85013L3.84911 3.84996L3.67225 3.67327ZM18.1768 17.0983L12.8804 11.802L12.5268 12.1555L17.8232 17.4519L18.1768 17.0983ZM17.453 18.1767L18.1769 17.4518L17.8231 17.0985L17.0992 17.8233L17.453 18.1767ZM11.803 12.8804L17.0994 18.1768L17.4529 17.8232L12.1565 12.5268L11.803 12.8804ZM7.65502 14.56C9.36809 14.56 10.9353 13.9286 12.1425 12.8934L11.817 12.5138C10.696 13.4752 9.24285 14.06 7.65502 14.06V14.56ZM0.75 7.65502C0.75 11.4626 3.84748 14.56 7.65502 14.56V14.06C4.12362 14.06 1.25 11.1864 1.25 7.65502H0.75ZM2.77051 2.77168C1.46741 4.07585 0.748939 5.81139 0.75 7.65517L1.25 7.65488C1.24902 5.94385 1.91479 4.3355 3.12421 3.12509L2.77051 2.77168ZM7.65502 0.75C5.81134 0.75 4.07588 1.46844 2.77073 2.77147L3.124 3.12531C4.33547 1.9158 5.9439 1.25 7.65502 1.25V0.75ZM14.56 7.65502C14.56 3.84747 11.4626 0.75 7.65502 0.75V1.25C11.1864 1.25 14.06 4.12362 14.06 7.65502H14.56ZM12.8934 12.1415C13.9285 10.9343 14.56 9.36813 14.56 7.65502H14.06C14.06 9.24281 13.4752 10.6949 12.5138 11.816L12.8934 12.1415ZM7.65502 13.0362C4.68875 13.0362 2.27385 10.6223 2.27385 7.65502H1.77385C1.77385 10.8985 4.41267 13.5362 7.65502 13.5362V13.0362ZM13.0362 7.65502C13.0362 10.6213 10.6213 13.0362 7.65502 13.0362V13.5362C10.8974 13.5362 13.5362 10.8974 13.5362 7.65502H13.0362ZM7.65502 2.27385C10.6213 2.27385 13.0362 4.68779 13.0362 7.65502H13.5362C13.5362 4.41159 10.8974 1.77385 7.65502 1.77385V2.27385ZM3.84911 3.84996C4.86488 2.83321 6.21618 2.27385 7.65502 2.27385V1.77385C6.08375 1.77385 4.60513 2.38577 3.49539 3.49658L3.84911 3.84996ZM2.27385 7.65485C2.27287 6.21618 2.83215 4.86594 3.84894 3.85013L3.49556 3.49641C2.38479 4.60611 1.77278 6.08375 1.77385 7.65519L2.27385 7.65485Z" fill="white"/>
</svg>
